name rise36.2859peak64.2979fall75.1499.mot
datacolumns 19
datarows 21
range 3.46665400000000 3.49998700000000
endheader
time	ground_force1_vx	ground_force1_vy	ground_force1_vz	ground_force1_px	ground_force1_py	ground_force1_pz	ground_force2_vx	ground_force2_vy	ground_force2_vz	ground_force2_px	ground_force2_py	ground_force2_pz	ground_torque1_x	ground_torque1_y	ground_torque1_z	ground_torque2_x	ground_torque2_y	ground_torque2_z	
3.46665400000000	13.73916900000000	710.14507800000001	43.21135700000000	0.32208000000000	0.00000000000000	0.09654100000000	0.00000000000000	0.00000000000000	0.00000000000000	0.00000000000000	0.00000000000000	0.00000000000000	0.00000000000000	24.50613600000000	0.00000000000000	0.00000000000000	0.00000000000000	0.00000000000000	
3.46832700000000	13.31861700000000	711.34862899999996	43.24952800000000	0.32124800000000	0.00000000000000	0.09649200000000	0.00000000000000	0.00000000000000	0.00000000000000	0.00000000000000	0.00000000000000	0.00000000000000	0.00000000000000	24.56337900000000	0.00000000000000	0.00000000000000	0.00000000000000	0.00000000000000	
3.46998500000000	12.88870000000000	712.56492100000003	43.29046200000000	0.32042600000000	0.00000000000000	0.09644200000000	0.00000000000000	0.00000000000000	0.00000000000000	0.00000000000000	0.00000000000000	0.00000000000000	0.00000000000000	24.62483200000000	0.00000000000000	0.00000000000000	0.00000000000000	0.00000000000000	
3.47166600000000	12.44924700000000	713.79229699999996	43.33401500000000	0.31961300000000	0.00000000000000	0.09639100000000	0.00000000000000	0.00000000000000	0.00000000000000	0.00000000000000	0.00000000000000	0.00000000000000	0.00000000000000	24.69041100000000	0.00000000000000	0.00000000000000	0.00000000000000	0.00000000000000	
3.47331800000000	12.00011400000000	715.02921900000001	43.38005400000000	0.31881000000000	0.00000000000000	0.09633900000000	0.00000000000000	0.00000000000000	0.00000000000000	0.00000000000000	0.00000000000000	0.00000000000000	0.00000000000000	24.76003000000000	0.00000000000000	0.00000000000000	0.00000000000000	0.00000000000000	
3.47500100000000	11.54118900000000	716.27426900000000	43.42846000000000	0.31801500000000	0.00000000000000	0.09628600000000	0.00000000000000	0.00000000000000	0.00000000000000	0.00000000000000	0.00000000000000	0.00000000000000	0.00000000000000	24.83360800000000	0.00000000000000	0.00000000000000	0.00000000000000	0.00000000000000	
3.47665100000000	11.07239300000000	717.52615000000003	43.47913000000000	0.31722700000000	0.00000000000000	0.09623200000000	0.00000000000000	0.00000000000000	0.00000000000000	0.00000000000000	0.00000000000000	0.00000000000000	0.00000000000000	24.91106200000000	0.00000000000000	0.00000000000000	0.00000000000000	0.00000000000000	
3.47831600000000	10.59367500000000	718.78368699999999	43.53197200000000	0.31644700000000	0.00000000000000	0.09617700000000	0.00000000000000	0.00000000000000	0.00000000000000	0.00000000000000	0.00000000000000	0.00000000000000	0.00000000000000	24.99231600000000	0.00000000000000	0.00000000000000	0.00000000000000	0.00000000000000	
3.47998300000000	10.10501700000000	720.04582600000003	43.58690900000000	0.31567400000000	0.00000000000000	0.09612100000000	0.00000000000000	0.00000000000000	0.00000000000000	0.00000000000000	0.00000000000000	0.00000000000000	0.00000000000000	25.07729300000000	0.00000000000000	0.00000000000000	0.00000000000000	0.00000000000000	
3.48165100000000	9.60643000000000	721.31163100000003	43.64387800000000	0.31490700000000	0.00000000000000	0.09606500000000	0.00000000000000	0.00000000000000	0.00000000000000	0.00000000000000	0.00000000000000	0.00000000000000	0.00000000000000	25.16591700000000	0.00000000000000	0.00000000000000	0.00000000000000	0.00000000000000	
3.48331900000000	9.09796000000000	722.58028500000000	43.70283000000000	0.31414400000000	0.00000000000000	0.09600800000000	0.00000000000000	0.00000000000000	0.00000000000000	0.00000000000000	0.00000000000000	0.00000000000000	0.00000000000000	25.25811600000000	0.00000000000000	0.00000000000000	0.00000000000000	0.00000000000000	
3.48499300000000	8.57967900000000	723.85108500000001	43.76373100000000	0.31338700000000	0.00000000000000	0.09595000000000	0.00000000000000	0.00000000000000	0.00000000000000	0.00000000000000	0.00000000000000	0.00000000000000	0.00000000000000	25.35381800000000	0.00000000000000	0.00000000000000	0.00000000000000	0.00000000000000	
3.48666700000000	8.05169200000000	725.12344299999995	43.82656100000000	0.31263300000000	0.00000000000000	0.09589200000000	0.00000000000000	0.00000000000000	0.00000000000000	0.00000000000000	0.00000000000000	0.00000000000000	0.00000000000000	25.45295300000000	0.00000000000000	0.00000000000000	0.00000000000000	0.00000000000000	
3.48832200000000	7.51413600000000	726.39687700000002	43.89131200000000	0.31188300000000	0.00000000000000	0.09583400000000	0.00000000000000	0.00000000000000	0.00000000000000	0.00000000000000	0.00000000000000	0.00000000000000	0.00000000000000	25.55545300000000	0.00000000000000	0.00000000000000	0.00000000000000	0.00000000000000	
3.48998500000000	6.96717600000000	727.67101100000002	43.95798900000000	0.31113500000000	0.00000000000000	0.09577500000000	0.00000000000000	0.00000000000000	0.00000000000000	0.00000000000000	0.00000000000000	0.00000000000000	0.00000000000000	25.66124800000000	0.00000000000000	0.00000000000000	0.00000000000000	0.00000000000000	
3.49165500000000	6.41100600000000	728.94557199999997	44.02661300000000	0.31038800000000	0.00000000000000	0.09571600000000	0.00000000000000	0.00000000000000	0.00000000000000	0.00000000000000	0.00000000000000	0.00000000000000	0.00000000000000	25.77027300000000	0.00000000000000	0.00000000000000	0.00000000000000	0.00000000000000	
3.49332100000000	5.84584900000000	730.22037899999998	44.09721600000000	0.30964400000000	0.00000000000000	0.09565700000000	0.00000000000000	0.00000000000000	0.00000000000000	0.00000000000000	0.00000000000000	0.00000000000000	0.00000000000000	25.88245900000000	0.00000000000000	0.00000000000000	0.00000000000000	0.00000000000000	
3.49498400000000	5.27195900000000	731.49534300000005	44.16983900000000	0.30889900000000	0.00000000000000	0.09559800000000	0.00000000000000	0.00000000000000	0.00000000000000	0.00000000000000	0.00000000000000	0.00000000000000	0.00000000000000	25.99774100000000	0.00000000000000	0.00000000000000	0.00000000000000	0.00000000000000	
3.49666500000000	4.68961600000000	732.77046199999995	44.24453900000000	0.30815500000000	0.00000000000000	0.09553900000000	0.00000000000000	0.00000000000000	0.00000000000000	0.00000000000000	0.00000000000000	0.00000000000000	0.00000000000000	26.11605000000000	0.00000000000000	0.00000000000000	0.00000000000000	0.00000000000000	
3.49832200000000	4.09912500000000	734.04581099999996	44.32138200000000	0.30741000000000	0.00000000000000	0.09548000000000	0.00000000000000	0.00000000000000	0.00000000000000	0.00000000000000	0.00000000000000	0.00000000000000	0.00000000000000	26.23731900000000	0.00000000000000	0.00000000000000	0.00000000000000	0.00000000000000	
3.49998700000000	3.50082100000000	735.32153600000004	44.40044100000000	0.30666400000000	0.00000000000000	0.09542200000000	0.00000000000000	0.00000000000000	0.00000000000000	0.00000000000000	0.00000000000000	0.00000000000000	0.00000000000000	26.36148100000000	0.00000000000000	0.00000000000000	0.00000000000000	0.00000000000000	
